<?xml version="1.0" encoding="utf-8"?>
<!-- Generator: Adobe Illustrator 21.0.1, SVG Export Plug-In . SVG Version: 6.00 Build 0)  -->
<svg version="1.1"
	 id="svg2" inkscape:version="0.91 r13725" sodipodi:docname="ebay_bearbeitet.svg" xmlns:cc="http://creativecommons.org/ns#" xmlns:dc="http://purl.org/dc/elements/1.1/" xmlns:inkscape="http://www.inkscape.org/namespaces/inkscape" xmlns:rdf="http://www.w3.org/1999/02/22-rdf-syntax-ns#" xmlns:sodipodi="http://sodipodi.sourceforge.net/DTD/sodipodi-0.dtd" xmlns:svg="http://www.w3.org/2000/svg"
	 xmlns="http://www.w3.org/2000/svg" xmlns:xlink="http://www.w3.org/1999/xlink" x="0px" y="0px" viewBox="0 0 975 576"
	 style="enable-background:new 0 0 975 576;" xml:space="preserve">
<style type="text/css">
	.st0{fill:#FFFFFF;}
	.st1{fill:none;stroke:#FFFFFF;stroke-width:1.0865;stroke-linecap:round;stroke-linejoin:round;stroke-miterlimit:10;}
	.st2{clip-path:url(#SVGID_2_);}
	.st3{fill:#D7EEF4;}
	.st4{fill:none;stroke:#FFFFFF;stroke-width:0.5335;stroke-linejoin:round;stroke-miterlimit:10;}
	.st5{fill:none;stroke:#FFFFFF;stroke-width:1.067;stroke-linejoin:round;stroke-miterlimit:10;}
	.st6{fill:#008B45;stroke:#008B45;stroke-width:0.7087;stroke-linecap:round;stroke-linejoin:round;stroke-miterlimit:10;}
	.st7{fill:none;stroke:#008B45;stroke-width:1.067;stroke-linejoin:round;stroke-miterlimit:10;}
	.st8{fill:#0088AA;stroke:#004455;stroke-width:1.067;stroke-linecap:round;stroke-linejoin:round;stroke-miterlimit:10;}
	.st9{fill:#006680;stroke:#004455;stroke-width:2.134;stroke-linejoin:round;stroke-miterlimit:10;}
	.st10{fill:#8B0000;stroke:#8B0000;stroke-width:0.7087;stroke-linecap:round;stroke-linejoin:round;stroke-miterlimit:10;}
	.st11{fill:none;stroke:#8B0000;stroke-width:1.067;stroke-linejoin:round;stroke-miterlimit:10;}
	.st12{fill:#FFFFFF;stroke:#8B0000;stroke-width:1.067;stroke-linecap:round;stroke-linejoin:round;stroke-miterlimit:10;}
	.st13{fill:none;stroke:#8B0000;stroke-width:2.134;stroke-linejoin:round;stroke-miterlimit:10;}
	.st14{fill:#FFFFFF;stroke:#008B45;stroke-width:1.067;stroke-linecap:round;stroke-linejoin:round;stroke-miterlimit:10;}
	.st15{fill:none;stroke:#008B45;stroke-width:2.134;stroke-linejoin:round;stroke-miterlimit:10;}
	.st16{fill:none;stroke:#333333;stroke-width:1.067;stroke-linejoin:round;stroke-miterlimit:10;}
	.st17{fill:none;stroke:#008B45;stroke-width:1.067;stroke-linecap:round;stroke-linejoin:round;stroke-miterlimit:10;}
	.st18{fill:none;stroke:#8B0000;stroke-width:1.067;stroke-linecap:round;stroke-linejoin:round;stroke-miterlimit:10;}
	.st19{font-family:'CenturyGothic-Bold';}
	.st20{font-size:20px;}
	.st21{font-family:'CenturyGothic';}
	.st22{font-size:12px;}
</style>
<sodipodi:namedview  bordercolor="#666666" borderopacity="1" gridtolerance="10" guidetolerance="10" id="namedview1198" inkscape:current-layer="g342" inkscape:cx="559.34929" inkscape:cy="290.58592" inkscape:pageopacity="0" inkscape:pageshadow="2" inkscape:window-height="837" inkscape:window-maximized="1" inkscape:window-width="1600" inkscape:window-x="-8" inkscape:window-y="-8" inkscape:zoom="0.81226625" objecttolerance="10" pagecolor="#ffffff" showgrid="false">
	</sodipodi:namedview>
<rect id="rect336" y="24.4" class="st0" width="975" height="532"/>
<path id="path340" inkscape:connector-curvature="0" class="st1" d="M0,576h975V24.4H0L0,576z"/>
<g>
	<defs>
		<rect id="SVGID_1_" x="40.7" y="62.4" width="766.9" height="453.2"/>
	</defs>
	<clipPath id="SVGID_2_">
		<use xlink:href="#SVGID_1_"  style="overflow:visible;"/>
	</clipPath>
	<g id="g342" class="st2">
		<path id="path344" class="st3" d="M40.7,514.5h765.9V62.4H40.7V514.5z"/>
		<path id="path346" class="st4" d="M40.7,387.2h765.9"/>
		<path id="path348" class="st4" d="M40.7,243h765.9"/>
		<path id="path350" class="st4" d="M40.7,98.8h765.9"/>
		<path id="path352" class="st5" d="M40.7,459.4h765.9"/>
		<path id="path354" class="st5" d="M40.7,315.1h765.9"/>
		<path id="path356" class="st5" d="M40.7,170.9h765.9"/>
		<path id="path358" class="st5" d="M104.5,514.5V62.4"/>
		<path id="path360" class="st5" d="M210.9,514.5V62.4"/>
		<path id="path362" class="st5" d="M317.3,514.5V62.4"/>
		<path id="path364" class="st5" d="M423.6,514.5V62.4"/>
		<path id="path366" class="st5" d="M530,514.5V62.4"/>
		<path id="path368" class="st5" d="M636.4,514.5V62.4"/>
		<path id="path370" class="st5" d="M742.8,514.5V62.4"/>
		<path id="path372" class="st6" d="M85.2,273.3c0,2.6-3.9,2.6-3.9,0S85.2,270.7,85.2,273.3"/>
		<path id="path374" class="st6" d="M85.2,234.4c0,2.6-3.9,2.6-3.9,0S85.2,231.8,85.2,234.4"/>
		<path id="path376" class="st6" d="M85.2,385.8c0,2.6-3.9,2.6-3.9,0S85.2,383.2,85.2,385.8"/>
		<path id="path378" class="st6" d="M85.2,256c0,2.6-3.9,2.6-3.9,0C81.3,253.4,85.2,253.4,85.2,256"/>
		<path id="path380" class="st6" d="M85.2,386.5c0,2.6-3.9,2.6-3.9,0S85.2,383.9,85.2,386.5"/>
		<path id="path382" class="st6" d="M85.2,387.2c0,2.6-3.9,2.6-3.9,0C81.3,384.6,85.2,384.6,85.2,387.2"/>
		<path id="path384" class="st6" d="M85.2,421.1c0,2.6-3.9,2.6-3.9,0C81.3,418.5,85.2,418.5,85.2,421.1"/>
		<path id="path386" class="st6" d="M85.2,243c0,2.6-3.9,2.6-3.9,0C81.3,240.4,85.2,240.4,85.2,243"/>
		<path id="path388" class="st7" d="M83.2,316.6v-38.9"/>
		<path id="path390" class="st7" d="M83.2,344v40.4"/>
		<path id="path392" class="st8" d="M63.3,316.6v12.1l10,2.3l-10,2.3V344h39.9v-10.7l-10-2.3l10-2.3v-12.1H63.3z"/>
		<path id="path394" class="st9" d="M73.3,331h19.9"/>
		<path id="path396" class="st10" d="M127.8,257.4c0,2.6-3.9,2.6-3.9,0C123.8,254.8,127.8,254.8,127.8,257.4"/>
		<path id="path398" class="st11" d="M125.8,319.2v-38"/>
		<path id="path400" class="st11" d="M125.8,351.9v32.4"/>
		<path id="path402" class="st12" d="M105.9,319.2v1.4l10,7.5l-10,7.5v16.3h39.9v-16.3l-10-7.5l10-7.5v-1.4H105.9z"/>
		<path id="path404" class="st13" d="M115.8,328.1h19.9"/>
		<path id="path406" class="st6" d="M191.6,191.1c0,2.6-3.9,2.6-3.9,0S191.6,188.5,191.6,191.1"/>
		<path id="path408" class="st6" d="M191.6,196.9c0,2.6-3.9,2.6-3.9,0S191.6,194.3,191.6,196.9"/>
		<path id="path410" class="st6" d="M191.6,202.5c0,2.6-3.9,2.6-3.9,0C187.7,199.9,191.6,199.9,191.6,202.5"/>
		<path id="path412" class="st6" d="M191.6,192.5c0,2.6-3.9,2.6-3.9,0C187.7,189.9,191.6,189.9,191.6,192.5"/>
		<path id="path414" class="st6" d="M191.6,191.1c0,2.6-3.9,2.6-3.9,0S191.6,188.5,191.6,191.1"/>
		<path id="path416" class="st6" d="M191.6,356.4c0,2.6-3.9,2.6-3.9,0C187.7,353.8,191.6,353.8,191.6,356.4"/>
		<path id="path418" class="st6" d="M191.6,198.3c0,2.6-3.9,2.6-3.9,0C187.7,195.7,191.6,195.7,191.6,198.3"/>
		<path id="path420" class="st6" d="M191.6,170.9c0,2.6-3.9,2.6-3.9,0S191.6,168.3,191.6,170.9"/>
		<path id="path422" class="st6" d="M191.6,176.7c0,2.6-3.9,2.6-3.9,0S191.6,174.1,191.6,176.7"/>
		<path id="path424" class="st6" d="M191.6,168c0,2.6-3.9,2.6-3.9,0C187.7,165.4,191.6,165.4,191.6,168"/>
		<path id="path426" class="st6" d="M191.6,197c0,2.6-3.9,2.6-3.9,0C187.7,194.4,191.6,194.4,191.6,197"/>
		<path id="path428" class="st6" d="M191.6,198.3c0,2.6-3.9,2.6-3.9,0C187.7,195.7,191.6,195.7,191.6,198.3"/>
		<path id="path430" class="st6" d="M191.6,199.8c0,2.6-3.9,2.6-3.9,0C187.7,197.1,191.6,197.1,191.6,199.8"/>
		<path id="path432" class="st6" d="M191.6,407.5c0,2.6-3.9,2.6-3.9,0S191.6,404.9,191.6,407.5"/>
		<path id="path434" class="st6" d="M191.6,331c0,2.6-3.9,2.6-3.9,0C187.7,328.4,191.6,328.4,191.6,331"/>
		<path id="path436" class="st6" d="M191.6,192.5c0,2.6-3.9,2.6-3.9,0S191.6,189.9,191.6,192.5"/>
		<path id="path438" class="st6" d="M191.6,198.3c0,2.6-3.9,2.6-3.9,0C187.7,195.7,191.6,195.7,191.6,198.3"/>
		<path id="path440" class="st6" d="M191.6,172.3c0,2.6-3.9,2.6-3.9,0S191.6,169.7,191.6,172.3"/>
		<path id="path442" class="st6" d="M191.6,144.9c0,2.6-3.9,2.6-3.9,0S191.6,142.3,191.6,144.9"/>
		<path id="path444" class="st6" d="M191.6,198.3c0,2.6-3.9,2.6-3.9,0C187.7,195.7,191.6,195.7,191.6,198.3"/>
		<path id="path446" class="st6" d="M191.6,185.3c0,2.6-3.9,2.6-3.9,0S191.6,182.7,191.6,185.3"/>
		<path id="path448" class="st6" d="M191.6,166.6c0,2.6-3.9,2.6-3.9,0C187.7,164,191.6,164,191.6,166.6"/>
		<path id="path450" class="st6" d="M191.6,198.3c0,2.6-3.9,2.6-3.9,0C187.7,195.7,191.6,195.7,191.6,198.3"/>
		<path id="path452" class="st6" d="M191.6,201.4c0,2.6-3.9,2.6-3.9,0S191.6,198.8,191.6,201.4"/>
		<path id="path454" class="st6" d="M191.6,198.4c0,2.6-3.9,2.6-3.9,0S191.6,195.8,191.6,198.4"/>
		<path id="path456" class="st6" d="M191.6,111.8c0,2.6-3.9,2.6-3.9,0C187.7,109.2,191.6,109.2,191.6,111.8"/>
		<path id="path458" class="st6" d="M191.6,195.4c0,2.6-3.9,2.6-3.9,0S191.6,192.8,191.6,195.4"/>
		<path id="path460" class="st7" d="M189.6,251.1v-45.6"/>
		<path id="path462" class="st7" d="M189.6,282v46.2"/>
		<path id="path464" class="st14" d="M169.7,251.1v16l10,1.1l-10,1.1V282h39.9v-12.6l-10-1.1l10-1.1v-16H169.7z"/>
		<path id="path466" class="st15" d="M179.6,268.2h19.9"/>
		<path id="path468" class="st10" d="M234.1,199.8c0,2.6-3.9,2.6-3.9,0C230.2,197.1,234.1,197.1,234.1,199.8"/>
		<path id="path470" class="st10" d="M234.1,203c0,2.6-3.9,2.6-3.9,0S234.1,200.4,234.1,203"/>
		<path id="path472" class="st10" d="M234.1,183.9c0,2.6-3.9,2.6-3.9,0S234.1,181.3,234.1,183.9"/>
		<path id="path474" class="st10" d="M234.1,195.8c0,2.6-3.9,2.6-3.9,0S234.1,193.2,234.1,195.8"/>
		<path id="path476" class="st10" d="M234.1,199.8c0,2.6-3.9,2.6-3.9,0C230.2,197.1,234.1,197.1,234.1,199.8"/>
		<path id="path478" class="st10" d="M234.1,339.7c0,2.6-3.9,2.6-3.9,0C230.2,337,234.1,337,234.1,339.7"/>
		<path id="path480" class="st10" d="M234.1,198.3c0,2.6-3.9,2.6-3.9,0S234.1,195.7,234.1,198.3"/>
		<path id="path482" class="st10" d="M234.1,82.9c0,2.6-3.9,2.6-3.9,0S234.1,80.3,234.1,82.9"/>
		<path id="path484" class="st10" d="M234.1,201.2c0,2.6-3.9,2.6-3.9,0S234.1,198.6,234.1,201.2"/>
		<path id="path486" class="st11" d="M232.2,252.8v-44.2"/>
		<path id="path488" class="st11" d="M232.2,283.6v31.6"/>
		<path id="path490" class="st12" d="M212.2,252.8v13.6l10,2.4l-10,2.4v12.5h39.9v-12.5l-10-2.4l10-2.4v-13.6H212.2z"/>
		<path id="path492" class="st13" d="M222.2,268.7h19.9"/>
		<path id="path494" class="st6" d="M297.9,438.7c0,2.6-3.9,2.6-3.9,0C294,436.1,297.9,436.1,297.9,438.7"/>
		<path id="path496" class="st7" d="M296,264.7v-97.4"/>
		<path id="path498" class="st7" d="M296,330.5v69.7"/>
		<path id="path500" class="st14" d="M276.1,264.7v27.8l10,6.8l-10,6.9v24.4h39.9v-24.4l-10-6.9l10-6.8v-27.8H276.1z"/>
		<path id="path502" class="st15" d="M286,299.3H306"/>
		<path id="path504" class="st11" d="M338.5,284.8v-50.5"/>
		<path id="path506" class="st11" d="M338.5,338.2v76.4"/>
		<path id="path508" class="st12" d="M318.6,284.8v6.3l10,13.9l-10,13.9v19.3h39.9v-19.3l-10-13.9l10-13.9v-6.3H318.6z"/>
		<path id="path510" class="st13" d="M328.6,305.1h19.9"/>
		<path id="path512" class="st6" d="M404.3,378.6c0,2.6-3.9,2.6-3.9,0S404.3,376,404.3,378.6"/>
		<path id="path514" class="st6" d="M404.3,375.7c0,2.6-3.9,2.6-3.9,0C400.4,373.1,404.3,373.1,404.3,375.7"/>
		<path id="path516" class="st6" d="M404.3,248c0,2.6-3.9,2.6-3.9,0S404.3,245.3,404.3,248"/>
		<path id="path518" class="st6" d="M404.3,211.9c0,2.6-3.9,2.6-3.9,0S404.3,209.3,404.3,211.9"/>
		<path id="path520" class="st6" d="M404.3,377.6c0,2.6-3.9,2.6-3.9,0S404.3,375,404.3,377.6"/>
		<path id="path522" class="st6" d="M404.3,378.6c0,2.6-3.9,2.6-3.9,0S404.3,376,404.3,378.6"/>
		<path id="path524" class="st6" d="M404.3,393c0,2.6-3.9,2.6-3.9,0S404.3,390.4,404.3,393"/>
		<path id="path526" class="st6" d="M404.3,459.4c0,2.6-3.9,2.6-3.9,0C400.4,456.8,404.3,456.8,404.3,459.4"/>
		<path id="path528" class="st7" d="M402.4,299.3V269"/>
		<path id="path530" class="st7" d="M402.4,328.1v43.3"/>
		<path id="path532" class="st14" d="M382.4,299.3v11.1l10,3.3l-10,3.3v11.1h39.9V317l-10-3.3l10-3.3v-11.1H382.4z"/>
		<path id="path534" class="st15" d="M392.4,313.7h19.9"/>
		<path id="path536" class="st11" d="M444.9,291.3V248"/>
		<path id="path538" class="st11" d="M444.9,341.8v61.3"/>
		<path id="path540" class="st12" d="M425,291.3v8.8l10,12.2l-10,12.2v17.4h39.9v-17.4l-10-12.2l10-12.2v-8.8H425z"/>
		<path id="path542" class="st13" d="M434.9,312.2h19.9"/>
		<path id="path544" class="st6" d="M510.7,198.3c0,2.6-3.9,2.6-3.9,0C506.8,195.7,510.7,195.7,510.7,198.3"/>
		<path id="path546" class="st6" d="M510.7,166.6c0,2.6-3.9,2.6-3.9,0C506.8,164,510.7,164,510.7,166.6"/>
		<path id="path548" class="st6" d="M510.7,170.9c0,2.6-3.9,2.6-3.9,0S510.7,168.3,510.7,170.9"/>
		<path id="path550" class="st6" d="M510.7,176.7c0,2.6-3.9,2.6-3.9,0S510.7,174.1,510.7,176.7"/>
		<path id="path552" class="st6" d="M510.7,196.9c0,2.6-3.9,2.6-3.9,0S510.7,194.3,510.7,196.9"/>
		<path id="path554" class="st6" d="M510.7,315.1c0,2.6-3.9,2.6-3.9,0S510.7,312.5,510.7,315.1"/>
		<path id="path556" class="st6" d="M510.7,198.3c0,2.6-3.9,2.6-3.9,0C506.8,195.7,510.7,195.7,510.7,198.3"/>
		<path id="path558" class="st6" d="M510.7,171c0,2.6-3.9,2.6-3.9,0C506.8,168.4,510.7,168.4,510.7,171"/>
		<path id="path560" class="st6" d="M510.7,311.5c0,2.6-3.9,2.6-3.9,0C506.8,308.9,510.7,308.9,510.7,311.5"/>
		<path id="path562" class="st6" d="M510.7,334.6c0,2.6-3.9,2.6-3.9,0C506.8,332,510.7,332,510.7,334.6"/>
		<path id="path564" class="st6" d="M510.7,311.8c0,2.6-3.9,2.6-3.9,0C506.8,309.2,510.7,309.2,510.7,311.8"/>
		<path id="path566" class="st6" d="M510.7,196.9c0,2.6-3.9,2.6-3.9,0S510.7,194.3,510.7,196.9"/>
		<path id="path568" class="st6" d="M510.7,313.7c0,2.6-3.9,2.6-3.9,0C506.8,311.1,510.7,311.1,510.7,313.7"/>
		<path id="path570" class="st6" d="M510.7,140.6c0,2.6-3.9,2.6-3.9,0S510.7,138,510.7,140.6"/>
		<path id="path572" class="st6" d="M510.7,323.4c0,2.6-3.9,2.6-3.9,0C506.8,320.7,510.7,320.7,510.7,323.4"/>
		<path id="path574" class="st6" d="M510.7,126.2c0,2.6-3.9,2.6-3.9,0S510.7,123.6,510.7,126.2"/>
		<path id="path576" class="st6" d="M510.7,119c0,2.6-3.9,2.6-3.9,0S510.7,116.4,510.7,119"/>
		<path id="path578" class="st6" d="M510.7,328.1c0,2.6-3.9,2.6-3.9,0S510.7,325.5,510.7,328.1"/>
		<path id="path580" class="st7" d="M508.7,240.9v-39.7"/>
		<path id="path582" class="st7" d="M508.7,268.3v39.7"/>
		<path id="path584" class="st14" d="M488.8,240.9v11l10,2l-10,2v12.4h39.9v-12.4l-10-2l10-2v-11H488.8z"/>
		<path id="path586" class="st15" d="M498.8,253.8h19.9"/>
		<path id="path588" class="st10" d="M553.3,198.2c0,2.6-3.9,2.6-3.9,0C549.3,195.6,553.3,195.6,553.3,198.2"/>
		<path id="path590" class="st10" d="M553.3,323.4c0,2.6-3.9,2.6-3.9,0C549.3,320.7,553.3,320.7,553.3,323.4"/>
		<path id="path592" class="st10" d="M553.3,328.1c0,2.6-3.9,2.6-3.9,0S553.3,325.5,553.3,328.1"/>
		<path id="path594" class="st11" d="M551.3,241.6v-43.3"/>
		<path id="path596" class="st11" d="M551.3,270.4v43.3"/>
		<path id="path598" class="st12" d="M531.3,241.6v10.7l10,3.7l-10,3.7v10.7h39.9v-10.7l-10-3.7l10-3.7v-10.7H531.3z"/>
		<path id="path600" class="st13" d="M541.3,256h19.9"/>
		<path id="path602" class="st6" d="M617.1,494c0,2.6-3.9,2.6-3.9,0S617.1,491.4,617.1,494"/>
		<path id="path604" class="st6" d="M617.1,387.2c0,2.6-3.9,2.6-3.9,0C613.2,384.6,617.1,384.6,617.1,387.2"/>
		<path id="path606" class="st6" d="M617.1,378.6c0,2.6-3.9,2.6-3.9,0S617.1,376,617.1,378.6"/>
		<path id="path608" class="st7" d="M615.1,428.3v-29.5"/>
		<path id="path610" class="st7" d="M615.1,450.7v20.2"/>
		<path id="path612" class="st14" d="M595.2,428.3v3.2l10,3.1l-10,3.1v13h39.9v-13l-10-3.1l10-3.1v-3.2H595.2z"/>
		<path id="path614" class="st15" d="M605.1,434.6h19.9"/>
		<path id="path616" class="st11" d="M657.7,426.9v-20.2"/>
		<path id="path618" class="st11" d="M657.7,448.8v16.5"/>
		<path id="path620" class="st12" d="M637.7,426.9v8.3l10,6.7l-10,6.7v0.2h39.9v-0.2l-10-6.7l10-6.7v-8.3H637.7z"/>
		<path id="path622" class="st13" d="M647.7,441.9h19.9"/>
		<path id="path624" class="st6" d="M723.4,315.1c0,2.6-3.9,2.6-3.9,0S723.4,312.5,723.4,315.1"/>
		<path id="path626" class="st7" d="M721.5,378.7v-43.4"/>
		<path id="path628" class="st7" d="M721.5,408.9v40.3"/>
		<path id="path630" class="st14" d="M701.5,378.7v11.2l10,3.2l-10,3.2v12.7h39.9v-12.7l-10-3.2l10-3.2v-11.2H701.5z"/>
		<path id="path632" class="st15" d="M711.5,393h19.9"/>
		<path id="path634" class="st10" d="M766,296.4c0,2.6-3.9,2.6-3.9,0S766,293.8,766,296.4"/>
		<path id="path636" class="st11" d="M764,374.8v-32.3"/>
		<path id="path638" class="st11" d="M764,412.5v38.2"/>
		<path id="path640" class="st12" d="M744.1,374.8v2.7l10,9.8l-10,9.8v15.4H784V397l-10-9.8l10-9.8v-2.7H744.1z"/>
		<path id="path642" class="st13" d="M754.1,387.2H774"/>
	</g>
</g>
<path id="path668" class="st16" d="M38,459.4h2.7"/>
<path id="path670" class="st16" d="M38,315.1h2.7"/>
<path id="path672" class="st16" d="M38,170.9h2.7"/>
<path id="path674" class="st16" d="M104.5,517.3v-2.7"/>
<path id="path676" class="st16" d="M210.9,517.3v-2.7"/>
<path id="path678" class="st16" d="M317.3,517.3v-2.7"/>
<path id="path680" class="st16" d="M423.6,517.3v-2.7"/>
<path id="path682" class="st16" d="M530,517.3v-2.7"/>
<path id="path684" class="st16" d="M636.4,517.3v-2.7"/>
<path id="path686" class="st16" d="M742.8,517.3v-2.7"/>
<path id="path990_1_" class="st17" d="M832.2,294.5"/>
<path id="path992_1_" class="st17" d="M832.2,280.7"/>
<path id="path994_3_" class="st14" d="M838.7,291.9"/>
<path id="path996_1_" class="st17" d="M825.8,287.6"/>
<path id="path1000_1_" class="st18" d="M832.2,309.2"/>
<path id="path1002_1_" class="st18" d="M832.2,300.6"/>
<path id="path1006_1_" class="st18" d="M825.8,304.9"/>
<text transform="matrix(1 0 0 1 41.9052 36.7854)" class="st19 st20">Sind meine Bewertungen relevant?</text>
<text transform="matrix(1 0 0 1 43.6276 54.7935)" class="st21 st22">Über Sinn und Unsinn der Jagt nach guten Bewertungen</text>
</svg>
